<?xml version="1.0" encoding="utf-8"?>
<!-- Generator: Adobe Illustrator 19.2.1, SVG Export Plug-In . SVG Version: 6.00 Build 0)  -->
<svg version="1.1" id="Layer_1" xmlns="http://www.w3.org/2000/svg" xmlns:xlink="http://www.w3.org/1999/xlink" x="0px" y="0px"
	 viewBox="0 0 62.2 96.8" style="enable-background:new 0 0 62.2 96.8;" xml:space="preserve">
<style type="text/css">
	.st0{fill:none;stroke:#000000;stroke-width:2;stroke-miterlimit:10;}
</style>
<path class="st0" d="M31.1,88.8L31.1,88.8c-11.3,0-20.6-9.3-20.6-20.6V28.6C10.5,17.3,19.8,8,31.1,8h0c11.3,0,20.6,9.3,20.6,20.6
	v39.5C51.8,79.5,42.5,88.8,31.1,88.8z"/>
<path class="st0" d="M31.1,39.2L31.1,39.2c-1.7,0-3-1.4-3-3V23.8c0-1.7,1.4-3,3-3h0c1.7,0,3,1.4,3,3v12.3
	C34.2,37.8,32.8,39.2,31.1,39.2z"/>
</svg>
